<svg width="318" height="183" viewBox="0 0 318 183" fill="none" xmlns="http://www.w3.org/2000/svg">
<g filter="url(#filter0_d_7_304)">
<path d="M71.0868 15.1442V19.6169H35.8095L31.288 24.1354L30.5409 24.8815L29.7938 24.1354L28.1259 22.4685L27.3778 21.7214L28.1259 20.9743L33.6503 15.4538L33.9589 15.1442H71.0868Z" fill="#93C01F" stroke="#93C01F" stroke-width="2.11315"/>
<path d="M22.1247 30.5006L23.7926 32.1676L24.5407 32.9146L23.7926 33.6617L19.6188 37.8336V56.2476H15.1442V35.984L15.4538 35.6744L20.6315 30.5006L21.3776 29.7535L22.1247 30.5006Z" fill="#93C01F" stroke="#93C01F" stroke-width="2.11315"/>
<path d="M78.2401 16.6549V18.0837H81.511V16.6549H78.2401Z" fill="#93C01F"/>
<path d="M288.707 23.3881L283.876 18.5605H249.217V16.2008H284.851L290.375 21.7212L288.707 23.3881Z" fill="#93C01F"/>
<path d="M303.046 55.1912H300.685V37.396L296.201 32.9147L297.869 31.2477L303.046 36.4218V55.1912Z" fill="#93C01F"/>
<path d="M302.05 66.0582H301.66V94.1582H302.05V66.0582Z" fill="#93C01F"/>
<path d="M301.184 68.2652H302.613V64.9963H301.184V68.2652Z" fill="#93C01F"/>
<path d="M70.0303 168.349H34.3967L28.8729 162.828L30.5409 161.161L35.3715 165.989H70.0303V168.349Z" fill="#93C01F"/>
<path d="M21.3779 153.303L16.2008 148.129V129.359H18.5619V147.155L23.0459 151.636L21.3779 153.303Z" fill="#93C01F"/>
<path d="M17.5879 66.0582H17.1982V94.1582H17.5879V66.0582Z" fill="#93C01F"/>
<path d="M18.0636 64.9752H16.6348V68.2441H18.0636V64.9752Z" fill="#93C01F"/>
<path d="M17.5879 90.3903H17.1982V118.491H17.5879V90.3903Z" fill="#93C01F"/>
<path d="M18.0636 116.305H16.6348V119.574H18.0636V116.305Z" fill="#93C01F"/>
<path d="M237.801 17.197H154.035V17.5866H237.801V17.197Z" fill="#93C01F"/>
<path d="M241.006 18.0612V16.6324H231.259V18.0612H241.006Z" fill="#93C01F"/>
<path d="M165.212 17.197H81.446V17.5866H165.212V17.197Z" fill="#93C01F"/>
<path d="M88.0096 18.0612V16.6324H78.2617V18.0612H88.0096Z" fill="#93C01F"/>
<path d="M237.802 167.006H154.035V167.396H237.802V167.006Z" fill="#93C01F"/>
<path d="M240.986 167.894V166.465H231.238V167.894H240.986Z" fill="#93C01F"/>
<path d="M165.213 167.006H81.447V167.396H165.213V167.006Z" fill="#93C01F"/>
<path d="M87.9888 167.872V166.443H78.241V167.872H87.9888Z" fill="#93C01F"/>
<path d="M284.851 168.349H249.217V165.989H283.876L288.707 161.161L290.375 162.828L284.851 168.349Z" fill="#93C01F"/>
<path d="M297.869 153.303L296.201 151.636L300.685 147.155V129.359H303.046V148.129L297.869 153.303Z" fill="#93C01F"/>
<path d="M302.05 90.3903H301.66V118.491H302.05V90.3903Z" fill="#93C01F"/>
<path d="M301.184 119.552H302.613V116.283H301.184V119.552Z" fill="#93C01F"/>
</g>
<defs>
<filter id="filter0_d_7_304" x="-5.34058e-05" y="-5.34058e-05" width="317.134" height="182.436" filterUnits="userSpaceOnUse" color-interpolation-filters="sRGB">
<feFlood flood-opacity="0" result="BackgroundImageFix"/>
<feColorMatrix in="SourceAlpha" type="matrix" values="0 0 0 0 0 0 0 0 0 0 0 0 0 0 0 0 0 0 127 0" result="hardAlpha"/>
<feOffset/>
<feGaussianBlur stdDeviation="7.04385"/>
<feComposite in2="hardAlpha" operator="out"/>
<feColorMatrix type="matrix" values="0 0 0 0 0 0 0 0 0 0 0 0 0 0 0 0 0 0 1 0"/>
<feBlend mode="normal" in2="BackgroundImageFix" result="effect1_dropShadow_7_304"/>
<feBlend mode="normal" in="SourceGraphic" in2="effect1_dropShadow_7_304" result="shape"/>
</filter>
</defs>
</svg>
