<svg width="800" height="238" viewBox="0 0 800 238" fill="none" xmlns="http://www.w3.org/2000/svg">
<g clip-path="url(#clip0_7_261)">
<g filter="url(#filter0_d_7_261)">
<path d="M734.455 25.3606V20.7822H722.183V25.3606H734.455Z" fill="#F39620"/>
<path d="M175.034 22.549V22.5361H69.5176V23.7883H160.955V23.8011H722.183V22.549H175.034Z" fill="#F39620"/>
<path d="M77.7599 25.3606V20.7822H65.4838V25.3606H77.7599Z" fill="#F39620"/>
<path d="M734.455 217.809V213.23H722.183V217.809H734.455Z" fill="#F39620"/>
<path d="M175.039 214.99V214.983H69.5176V216.229H160.961V216.242H722.188V214.99H175.039Z" fill="#F39620"/>
<path d="M77.7599 217.802V213.224H65.4838V217.802H77.7599Z" fill="#F39620"/>
<path d="M787.046 121L789.361 124.622V181.373L768.005 214.861L767.838 214.591L789.121 181.213V124.776L786.879 121.263L787.046 121Z" fill="#F39620"/>
<path d="M779.708 96.5605H779.944V117.905L784.996 125.823L784.829 126.092L779.708 118.059V96.5605Z" fill="#F39620"/>
<path d="M788.517 172.14H789.96V181.759L785.422 188.874L784.402 187.281L788.517 180.828V172.14Z" fill="#F39620"/>
<path d="M789.239 155.142L790.519 153.138V134.503L789.106 132.288L789.239 155.142Z" fill="#F39620"/>
<path d="M778.119 107.612H778.359V119.466C779.365 121.058 780.861 123.421 780.959 123.543L780.895 123.665L780.851 123.871C780.817 123.851 780.777 123.832 778.153 119.671L778.119 119.613V107.605V107.612Z" fill="#F39620"/>
<path d="M786.619 165.865H786.86V178.644L777.702 193.008L777.53 192.739L786.619 178.49V165.865Z" fill="#F39620"/>
<path d="M770.811 213.159L770.982 213.429L768.049 218.027H755.497V217.648H767.951L770.811 213.159Z" fill="#F39620"/>
<path d="M750.475 216.408H758.95V215.073H750.475V216.408Z" fill="#F39620"/>
<path d="M768.005 22.375L789.361 55.8687V112.614L787.046 116.236L786.879 115.972L789.121 112.46V56.0228L767.838 22.6447L768.005 22.375Z" fill="#F39620"/>
<path d="M784.829 111.144L784.996 111.413L779.944 119.331V140.675H779.708V119.177L784.829 111.144Z" fill="#F39620"/>
<path d="M785.422 48.3613L789.96 55.4762V65.0953H788.517V56.4137L784.402 49.9538L785.422 48.3613Z" fill="#F39620"/>
<path d="M789.239 82.0928L790.519 84.1027V102.731L789.106 104.946L789.239 82.0928Z" fill="#F39620"/>
<path d="M780.851 113.365L780.93 113.725L780.89 113.545L780.959 113.699C780.861 113.821 779.365 116.184 778.359 117.783V129.637H778.119V117.629L778.153 117.571C780.773 113.41 780.812 113.391 780.846 113.372L780.851 113.365Z" fill="#F39620"/>
<path d="M777.702 44.2324L786.86 58.5905V71.369H786.619V58.7446L777.53 44.4957L777.702 44.2324Z" fill="#F39620"/>
<path d="M755.497 19.209H768.049L770.982 23.8067L770.811 24.0764L767.951 19.5878H755.497V19.209Z" fill="#F39620"/>
<path d="M750.475 22.1689H758.95V20.8333H750.475V22.1689Z" fill="#F39620"/>
<path d="M12.8946 116.236L10.5809 112.614V55.8623L31.9358 22.375L32.104 22.6447L10.8219 56.0228V112.46L13.0629 115.972L12.8946 116.236Z" fill="#F39620"/>
<path d="M20.2333 140.675H19.9962V119.331L14.9443 111.413L15.1126 111.144L20.2333 119.177V140.675Z" fill="#F39620"/>
<path d="M11.4222 65.0953H9.98425V55.4762L14.5199 48.3613L15.5371 49.9538L11.4222 56.4073V65.0953Z" fill="#F39620"/>
<path d="M10.7032 82.0928L9.42212 84.0962V102.731L10.8371 104.946L10.7032 82.0928Z" fill="#F39620"/>
<path d="M21.8242 129.624H21.5833V117.77C20.5775 116.178 19.0822 113.815 18.9828 113.693L19.0478 113.571L19.0899 113.365C19.1243 113.384 19.1625 113.404 21.786 117.565L21.8204 117.623V129.63L21.8242 129.624Z" fill="#F39620"/>
<path d="M13.323 71.3696H13.082V58.5911L22.2374 44.2266L22.4095 44.4963L13.323 58.7452V71.3696Z" fill="#F39620"/>
<path d="M29.1288 24.0764L28.9567 23.8067L31.8899 19.209H44.4451V19.5878H31.9894L29.1288 24.0764Z" fill="#F39620"/>
<path d="M49.4665 20.8271H40.9917V22.1628H49.4665V20.8271Z" fill="#F39620"/>
<path d="M31.9358 214.861L10.5809 181.367V124.622L12.8946 121L13.0629 121.263L10.8219 124.776V181.213L32.104 214.591L31.9358 214.861Z" fill="#F39620"/>
<path d="M15.1126 126.092L14.9443 125.823L19.9962 117.905V96.5605H20.2333V118.059L15.1126 126.092Z" fill="#F39620"/>
<path d="M14.5199 188.874L9.98425 181.759V172.14H11.4222V180.828L15.5371 187.281L14.5199 188.874Z" fill="#F39620"/>
<path d="M10.7032 155.142L9.42212 153.138V134.503L10.8371 132.288L10.7032 155.142Z" fill="#F39620"/>
<path d="M19.0899 123.87L19.0134 123.511L19.0516 123.691L18.9828 123.536C19.0784 123.414 20.5775 121.051 21.5833 119.452V107.599H21.8242V119.607L21.7898 119.664C19.1663 123.825 19.1281 123.845 19.0937 123.864L19.0899 123.87Z" fill="#F39620"/>
<path d="M22.2374 193.002L13.082 178.644V165.865H13.323V178.49L22.4095 192.739L22.2374 193.002Z" fill="#F39620"/>
<path d="M44.4451 218.027H31.8899L28.9567 213.429L29.1288 213.159L31.9894 217.648H44.4451V218.027Z" fill="#F39620"/>
<path d="M49.4665 215.066H40.9917V216.402H49.4665V215.066Z" fill="#F39620"/>
</g>
</g>
<defs>
<filter id="filter0_d_7_261" x="-9.7873" y="-0.000434875" width="819.516" height="237.237" filterUnits="userSpaceOnUse" color-interpolation-filters="sRGB">
<feFlood flood-opacity="0" result="BackgroundImageFix"/>
<feColorMatrix in="SourceAlpha" type="matrix" values="0 0 0 0 0 0 0 0 0 0 0 0 0 0 0 0 0 0 127 0" result="hardAlpha"/>
<feOffset/>
<feGaussianBlur stdDeviation="9.60471"/>
<feComposite in2="hardAlpha" operator="out"/>
<feColorMatrix type="matrix" values="0 0 0 0 0.952941 0 0 0 0 0.588235 0 0 0 0 0.12549 0 0 0 0.4 0"/>
<feBlend mode="normal" in2="BackgroundImageFix" result="effect1_dropShadow_7_261"/>
<feBlend mode="normal" in="SourceGraphic" in2="effect1_dropShadow_7_261" result="shape"/>
</filter>
<clipPath id="clip0_7_261">
<rect width="800" height="238" fill="white"/>
</clipPath>
</defs>
</svg>
