<svg width="1631" height="238" viewBox="0 0 1631 238" fill="none" xmlns="http://www.w3.org/2000/svg">
<g filter="url(#filter0_d_7370_559)">
<path d="M1497.37 25.3606V20.7822H1472.35V25.3606H1497.37Z" fill="#F39620"/>
<path d="M356.851 22.549V22.5361H141.729V23.7883H328.148V23.8011H1472.35V22.549H356.851Z" fill="#F39620"/>
<path d="M158.533 25.3606V20.7822H133.505V25.3606H158.533Z" fill="#F39620"/>
<path d="M1497.37 217.809V213.23H1472.35V217.809H1497.37Z" fill="#F39620"/>
<path d="M356.861 214.99V214.983H141.729V216.229H328.159V216.242H1472.36V214.99H356.861Z" fill="#F39620"/>
<path d="M158.533 217.802V213.224H133.505V217.802H158.533Z" fill="#F39620"/>
<path d="M1604.59 121L1609.31 124.622V181.373L1565.77 214.861L1565.43 214.591L1608.82 181.213V124.776L1604.25 121.263L1604.59 121Z" fill="#F39620"/>
<path d="M1589.63 96.5605H1590.11V117.905L1600.41 125.823L1600.07 126.092L1589.63 118.059V96.5605Z" fill="#F39620"/>
<path d="M1607.59 172.14H1610.53V181.759L1601.28 188.874L1599.2 187.281L1607.59 180.828V172.14Z" fill="#F39620"/>
<path d="M1609.06 155.142L1611.67 153.138V134.503L1608.79 132.288L1609.06 155.142Z" fill="#F39620"/>
<path d="M1586.39 107.612H1586.88V119.466C1588.93 121.058 1591.98 123.421 1592.18 123.543L1592.05 123.665L1591.96 123.871C1591.89 123.851 1591.81 123.832 1586.46 119.671L1586.39 119.613V107.605L1586.39 107.612Z" fill="#F39620"/>
<path d="M1603.72 165.865H1604.21V178.644L1585.54 193.008L1585.19 192.739L1603.72 178.49V165.865Z" fill="#F39620"/>
<path d="M1571.49 213.159L1571.84 213.429L1565.86 218.027H1540.27V217.648H1565.66L1571.49 213.159Z" fill="#F39620"/>
<path d="M1530.03 216.408H1547.31V215.073H1530.03V216.408Z" fill="#F39620"/>
<path d="M1565.77 22.375L1609.31 55.8687V112.614L1604.59 116.236L1604.25 115.972L1608.82 112.46V56.0228L1565.43 22.6447L1565.77 22.375Z" fill="#F39620"/>
<path d="M1600.07 111.144L1600.41 111.413L1590.11 119.331V140.675H1589.63V119.177L1600.07 111.144Z" fill="#F39620"/>
<path d="M1601.28 48.3613L1610.53 55.4762V65.0953H1607.59V56.4137L1599.2 49.9538L1601.28 48.3613Z" fill="#F39620"/>
<path d="M1609.06 82.0928L1611.67 84.1027V102.731L1608.79 104.946L1609.06 82.0928Z" fill="#F39620"/>
<path d="M1591.96 113.365L1592.12 113.725L1592.04 113.545L1592.18 113.699C1591.98 113.821 1588.93 116.184 1586.88 117.783V129.637H1586.39V117.629L1586.46 117.571C1591.8 113.41 1591.88 113.391 1591.95 113.372L1591.96 113.365Z" fill="#F39620"/>
<path d="M1585.54 44.2324L1604.21 58.5905V71.369H1603.72V58.7446L1585.19 44.4957L1585.54 44.2324Z" fill="#F39620"/>
<path d="M1540.27 19.209H1565.86L1571.84 23.8067L1571.49 24.0764L1565.66 19.5878H1540.27V19.209Z" fill="#F39620"/>
<path d="M1530.03 22.1689H1547.31V20.8333H1530.03V22.1689Z" fill="#F39620"/>
<path d="M26.2889 116.236L21.5719 112.614V55.8623L65.1091 22.375L65.4521 22.6447L22.0631 56.0228V112.46L26.632 115.972L26.2889 116.236Z" fill="#F39620"/>
<path d="M41.2508 140.675H40.7674V119.331L30.4679 111.413L30.8109 111.144L41.2508 119.177V140.675Z" fill="#F39620"/>
<path d="M23.2871 65.0953H20.3555V55.4762L29.6025 48.3613L31.6764 49.9538L23.2871 56.4073V65.0953Z" fill="#F39620"/>
<path d="M21.8213 82.0928L19.2094 84.0962V102.731L22.0942 104.946L21.8213 82.0928Z" fill="#F39620"/>
<path d="M44.4943 129.624H44.0031V117.77C41.9525 116.178 38.904 113.815 38.7013 113.693L38.8338 113.571L38.9196 113.365C38.9898 113.384 39.0677 113.404 44.4163 117.565L44.4865 117.623V129.63L44.4943 129.624Z" fill="#F39620"/>
<path d="M27.1622 71.3696H26.671V58.5911L45.3365 44.2266L45.6873 44.4963L27.1622 58.7452V71.3696Z" fill="#F39620"/>
<path d="M59.3863 24.0764L59.0354 23.8067L65.0156 19.209H90.6124V19.5878H65.2183L59.3863 24.0764Z" fill="#F39620"/>
<path d="M100.85 20.8271H83.5719V22.1628H100.85V20.8271Z" fill="#F39620"/>
<path d="M65.1091 214.861L21.5719 181.367V124.622L26.2889 121L26.632 121.263L22.0631 124.776V181.213L65.4521 214.591L65.1091 214.861Z" fill="#F39620"/>
<path d="M30.8109 126.092L30.4679 125.823L40.7674 117.905V96.5605H41.2508V118.059L30.8109 126.092Z" fill="#F39620"/>
<path d="M29.6025 188.874L20.3555 181.759V172.14H23.2871V180.828L31.6764 187.281L29.6025 188.874Z" fill="#F39620"/>
<path d="M21.8213 155.142L19.2094 153.138V134.503L22.0942 132.288L21.8213 155.142Z" fill="#F39620"/>
<path d="M38.9196 123.87L38.7637 123.511L38.8416 123.691L38.7013 123.536C38.8962 123.414 41.9525 121.051 44.0031 119.452V107.599H44.4943V119.607L44.4241 119.664C39.0755 123.825 38.9976 123.845 38.9274 123.864L38.9196 123.87Z" fill="#F39620"/>
<path d="M45.3365 193.002L26.671 178.644V165.865H27.1622V178.49L45.6873 192.739L45.3365 193.002Z" fill="#F39620"/>
<path d="M90.6124 218.027H65.0156L59.0354 213.429L59.3863 213.159L65.2183 217.648H90.6124V218.027Z" fill="#F39620"/>
<path d="M100.85 215.066H83.5719V216.402H100.85V215.066Z" fill="#F39620"/>
</g>
<defs>
<filter id="filter0_d_7370_559" x="7.62939e-06" y="-0.000434875" width="1630.88" height="237.236" filterUnits="userSpaceOnUse" color-interpolation-filters="sRGB">
<feFlood flood-opacity="0" result="BackgroundImageFix"/>
<feColorMatrix in="SourceAlpha" type="matrix" values="0 0 0 0 0 0 0 0 0 0 0 0 0 0 0 0 0 0 127 0" result="hardAlpha"/>
<feOffset/>
<feGaussianBlur stdDeviation="9.60471"/>
<feComposite in2="hardAlpha" operator="out"/>
<feColorMatrix type="matrix" values="0 0 0 0 0.952941 0 0 0 0 0.588235 0 0 0 0 0.12549 0 0 0 0.4 0"/>
<feBlend mode="normal" in2="BackgroundImageFix" result="effect1_dropShadow_7370_559"/>
<feBlend mode="normal" in="SourceGraphic" in2="effect1_dropShadow_7370_559" result="shape"/>
</filter>
</defs>
</svg>
