<svg width="1200" height="238" viewBox="0 0 1200 238" fill="none" xmlns="http://www.w3.org/2000/svg">
<g clip-path="url(#clip0_7_261)">
<g filter="url(#filter0_d_7_261)">
<path d="M1101.68 25.3606V20.7822H1083.27V25.3606H1101.68Z" fill="#F39620"/>
<path d="M262.551 22.549V22.5361H104.276V23.7883H241.433V23.8011H1083.27V22.549H262.551Z" fill="#F39620"/>
<path d="M116.64 25.3606V20.7822H98.2256V25.3606H116.64Z" fill="#F39620"/>
<path d="M1101.68 217.809V213.23H1083.27V217.809H1101.68Z" fill="#F39620"/>
<path d="M262.559 214.99V214.983H104.276V216.229H241.441V216.242H1083.28V214.99H262.559Z" fill="#F39620"/>
<path d="M116.64 217.802V213.224H98.2256V217.802H116.64Z" fill="#F39620"/>
<path d="M1180.57 121L1184.04 124.622V181.373L1152.01 214.861L1151.76 214.591L1183.68 181.213V124.776L1180.32 121.263L1180.57 121Z" fill="#F39620"/>
<path d="M1169.56 96.5605H1169.92V117.905L1177.49 125.823L1177.24 126.092L1169.56 118.059V96.5605Z" fill="#F39620"/>
<path d="M1182.78 172.14H1184.94V181.759L1178.13 188.874L1176.6 187.281L1182.78 180.828V172.14Z" fill="#F39620"/>
<path d="M1183.86 155.142L1185.78 153.138V134.503L1183.66 132.288L1183.86 155.142Z" fill="#F39620"/>
<path d="M1167.18 107.612H1167.54V119.466C1169.05 121.058 1171.29 123.421 1171.44 123.543L1171.34 123.665L1171.28 123.871C1171.23 123.851 1171.17 123.832 1167.23 119.671L1167.18 119.613V107.605V107.612Z" fill="#F39620"/>
<path d="M1179.93 165.865H1180.29V178.644L1166.55 193.008L1166.3 192.739L1179.93 178.49V165.865Z" fill="#F39620"/>
<path d="M1156.22 213.159L1156.47 213.429L1152.07 218.027H1133.25V217.648H1151.93L1156.22 213.159Z" fill="#F39620"/>
<path d="M1125.71 216.408H1138.43V215.073H1125.71V216.408Z" fill="#F39620"/>
<path d="M1152.01 22.375L1184.04 55.8687V112.614L1180.57 116.236L1180.32 115.972L1183.68 112.46V56.0228L1151.76 22.6447L1152.01 22.375Z" fill="#F39620"/>
<path d="M1177.24 111.144L1177.49 111.413L1169.92 119.331V140.675H1169.56V119.177L1177.24 111.144Z" fill="#F39620"/>
<path d="M1178.13 48.3613L1184.94 55.4762V65.0953H1182.78V56.4137L1176.6 49.9538L1178.13 48.3613Z" fill="#F39620"/>
<path d="M1183.86 82.0928L1185.78 84.1027V102.731L1183.66 104.946L1183.86 82.0928Z" fill="#F39620"/>
<path d="M1171.28 113.365L1171.39 113.725L1171.34 113.545L1171.44 113.699C1171.29 113.821 1169.05 116.184 1167.54 117.783V129.637H1167.18V117.629L1167.23 117.571C1171.16 113.41 1171.22 113.391 1171.27 113.372L1171.28 113.365Z" fill="#F39620"/>
<path d="M1166.55 44.2324L1180.29 58.5905V71.369H1179.93V58.7446L1166.3 44.4957L1166.55 44.2324Z" fill="#F39620"/>
<path d="M1133.25 19.209H1152.07L1156.47 23.8067L1156.22 24.0764L1151.93 19.5878H1133.25V19.209Z" fill="#F39620"/>
<path d="M1125.71 22.1689H1138.43V20.8333H1125.71V22.1689Z" fill="#F39620"/>
<path d="M19.3418 116.236L15.8713 112.614V55.8623L47.9036 22.375L48.156 22.6447L16.2327 56.0228V112.46L19.5943 115.972L19.3418 116.236Z" fill="#F39620"/>
<path d="M30.35 140.675H29.9943V119.331L22.4165 111.413L22.6689 111.144L30.35 119.177V140.675Z" fill="#F39620"/>
<path d="M17.1334 65.0953H14.9764V55.4762L21.7799 48.3613L23.3057 49.9538L17.1334 56.4073V65.0953Z" fill="#F39620"/>
<path d="M16.0549 82.0928L14.1332 84.0962V102.731L16.2557 104.946L16.0549 82.0928Z" fill="#F39620"/>
<path d="M32.7364 129.624H32.375V117.77C30.8663 116.178 28.6234 113.815 28.4742 113.693L28.5717 113.571L28.6349 113.365C28.6865 113.384 28.7438 113.404 32.679 117.565L32.7307 117.623V129.63L32.7364 129.624Z" fill="#F39620"/>
<path d="M19.9844 71.3696H19.623V58.5911L33.3561 44.2266L33.6142 44.4963L19.9844 58.7452V71.3696Z" fill="#F39620"/>
<path d="M43.6931 24.0764L43.4349 23.8067L47.8348 19.209H66.6676V19.5878H47.984L43.6931 24.0764Z" fill="#F39620"/>
<path d="M74.1998 20.8271H61.4875V22.1628H74.1998V20.8271Z" fill="#F39620"/>
<path d="M47.9036 214.861L15.8713 181.367V124.622L19.3418 121L19.5943 121.263L16.2327 124.776V181.213L48.156 214.591L47.9036 214.861Z" fill="#F39620"/>
<path d="M22.6689 126.092L22.4165 125.823L29.9943 117.905V96.5605H30.35V118.059L22.6689 126.092Z" fill="#F39620"/>
<path d="M21.7799 188.874L14.9764 181.759V172.14H17.1334V180.828L23.3057 187.281L21.7799 188.874Z" fill="#F39620"/>
<path d="M16.0549 155.142L14.1332 153.138V134.503L16.2557 132.288L16.0549 155.142Z" fill="#F39620"/>
<path d="M28.6349 123.87L28.5202 123.511L28.5775 123.691L28.4742 123.536C28.6176 123.414 30.8663 121.051 32.375 119.452V107.599H32.7364V119.607L32.6848 119.664C28.7496 123.825 28.6922 123.845 28.6406 123.864L28.6349 123.87Z" fill="#F39620"/>
<path d="M33.3561 193.002L19.623 178.644V165.865H19.9844V178.49L33.6142 192.739L33.3561 193.002Z" fill="#F39620"/>
<path d="M66.6676 218.027H47.8348L43.4349 213.429L43.6931 213.159L47.984 217.648H66.6676V218.027Z" fill="#F39620"/>
<path d="M74.1998 215.066H61.4875V216.402H74.1998V215.066Z" fill="#F39620"/>
</g>
</g>
<defs>
<filter id="filter0_d_7_261" x="-5.07624" y="-0.000434875" width="1210.06" height="237.237" filterUnits="userSpaceOnUse" color-interpolation-filters="sRGB">
<feFlood flood-opacity="0" result="BackgroundImageFix"/>
<feColorMatrix in="SourceAlpha" type="matrix" values="0 0 0 0 0 0 0 0 0 0 0 0 0 0 0 0 0 0 127 0" result="hardAlpha"/>
<feOffset/>
<feGaussianBlur stdDeviation="9.60471"/>
<feComposite in2="hardAlpha" operator="out"/>
<feColorMatrix type="matrix" values="0 0 0 0 0.952941 0 0 0 0 0.588235 0 0 0 0 0.12549 0 0 0 0.4 0"/>
<feBlend mode="normal" in2="BackgroundImageFix" result="effect1_dropShadow_7_261"/>
<feBlend mode="normal" in="SourceGraphic" in2="effect1_dropShadow_7_261" result="shape"/>
</filter>
<clipPath id="clip0_7_261">
<rect width="1200" height="238" fill="white"/>
</clipPath>
</defs>
</svg>
