<svg width="450" height="238" viewBox="0 0 450 238" fill="none" xmlns="http://www.w3.org/2000/svg">
<g clip-path="url(#clip0_7_261)">
<g filter="url(#filter0_d_7_261)">
<path d="M413.131 25.3606V20.7822H406.228V25.3606H413.131Z" fill="#F39620"/>
<path d="M98.4567 22.549V22.5361H39.1036V23.7883H90.5374V23.8011H406.228V22.549H98.4567Z" fill="#F39620"/>
<path d="M43.7399 25.3606V20.7822H36.8346V25.3606H43.7399Z" fill="#F39620"/>
<path d="M413.131 217.809V213.23H406.228V217.809H413.131Z" fill="#F39620"/>
<path d="M98.4595 214.99V214.983H39.1036V216.229H90.5405V216.242H406.231V214.99H98.4595Z" fill="#F39620"/>
<path d="M43.7399 217.802V213.224H36.8346V217.802H43.7399Z" fill="#F39620"/>
<path d="M442.713 121L444.016 124.622V181.373L432.003 214.861L431.909 214.591L443.88 181.213V124.776L442.62 121.263L442.713 121Z" fill="#F39620"/>
<path d="M438.586 96.5605H438.718V117.905L441.56 125.823L441.466 126.092L438.586 118.059V96.5605Z" fill="#F39620"/>
<path d="M443.541 172.14H444.352V181.759L441.8 188.874L441.226 187.281L443.541 180.828V172.14Z" fill="#F39620"/>
<path d="M443.947 155.142L444.667 153.138V134.503L443.872 132.288L443.947 155.142Z" fill="#F39620"/>
<path d="M437.692 107.612H437.827V119.466C438.393 121.058 439.234 123.421 439.289 123.543L439.254 123.665L439.229 123.871C439.209 123.851 439.187 123.832 437.711 119.671L437.692 119.613V107.605V107.612Z" fill="#F39620"/>
<path d="M442.473 165.865H442.609V178.644L437.457 193.008L437.361 192.739L442.473 178.49V165.865Z" fill="#F39620"/>
<path d="M433.581 213.159L433.677 213.429L432.028 218.027H424.967V217.648H431.972L433.581 213.159Z" fill="#F39620"/>
<path d="M422.142 216.408H426.91V215.073H422.142V216.408Z" fill="#F39620"/>
<path d="M432.003 22.375L444.016 55.8687V112.614L442.713 116.236L442.62 115.972L443.88 112.46V56.0228L431.909 22.6447L432.003 22.375Z" fill="#F39620"/>
<path d="M441.466 111.144L441.56 111.413L438.718 119.331V140.675H438.586V119.177L441.466 111.144Z" fill="#F39620"/>
<path d="M441.8 48.3613L444.352 55.4762V65.0953H443.541V56.4137L441.226 49.9538L441.8 48.3613Z" fill="#F39620"/>
<path d="M443.947 82.0928L444.667 84.1027V102.731L443.872 104.946L443.947 82.0928Z" fill="#F39620"/>
<path d="M439.229 113.365L439.273 113.725L439.251 113.545L439.289 113.699C439.234 113.821 438.393 116.184 437.827 117.783V129.637H437.692V117.629L437.711 117.571C439.185 113.41 439.207 113.391 439.226 113.372L439.229 113.365Z" fill="#F39620"/>
<path d="M437.457 44.2324L442.609 58.5905V71.369H442.473V58.7446L437.361 44.4957L437.457 44.2324Z" fill="#F39620"/>
<path d="M424.967 19.209H432.028L433.677 23.8067L433.581 24.0764L431.972 19.5878H424.967V19.209Z" fill="#F39620"/>
<path d="M422.142 22.1689H426.91V20.8333H422.142V22.1689Z" fill="#F39620"/>
<path d="M7.25322 116.236L5.95178 112.614V55.8623L17.9639 22.375L18.0585 22.6447L6.08731 56.0228V112.46L7.34789 115.972L7.25322 116.236Z" fill="#F39620"/>
<path d="M11.3813 140.675H11.2479V119.331L8.40625 111.413L8.50089 111.144L11.3813 119.177V140.675Z" fill="#F39620"/>
<path d="M6.42493 65.0953H5.61609V55.4762L8.16738 48.3613L8.73957 49.9538L6.42493 56.4073V65.0953Z" fill="#F39620"/>
<path d="M6.02056 82.0928L5.29993 84.0962V102.731L6.09586 104.946L6.02056 82.0928Z" fill="#F39620"/>
<path d="M12.2762 129.624H12.1406V117.77C11.5749 116.178 10.7338 113.815 10.6779 113.693L10.7144 113.571L10.7381 113.365C10.7575 113.384 10.7789 113.404 12.2546 117.565L12.274 117.623V129.63L12.2762 129.624Z" fill="#F39620"/>
<path d="M7.49417 71.3696H7.35864V58.5911L12.5085 44.2266L12.6053 44.4963L7.49417 58.7452V71.3696Z" fill="#F39620"/>
<path d="M16.3849 24.0764L16.2881 23.8067L17.938 19.209H25.0003V19.5878H17.994L16.3849 24.0764Z" fill="#F39620"/>
<path d="M27.825 20.8271H23.0579V22.1628H27.825V20.8271Z" fill="#F39620"/>
<path d="M17.9639 214.861L5.95178 181.367V124.622L7.25322 121L7.34789 121.263L6.08731 124.776V181.213L18.0585 214.591L17.9639 214.861Z" fill="#F39620"/>
<path d="M8.50089 126.092L8.40625 125.823L11.2479 117.905V96.5605H11.3813V118.059L8.50089 126.092Z" fill="#F39620"/>
<path d="M8.16738 188.874L5.61609 181.759V172.14H6.42493V180.828L8.73957 187.281L8.16738 188.874Z" fill="#F39620"/>
<path d="M6.02056 155.142L5.29993 153.138V134.503L6.09586 132.288L6.02056 155.142Z" fill="#F39620"/>
<path d="M10.7381 123.87L10.6951 123.511L10.7166 123.691L10.6779 123.536C10.7316 123.414 11.5749 121.051 12.1406 119.452V107.599H12.2762V119.607L12.2568 119.664C10.7811 123.825 10.7596 123.845 10.7402 123.864L10.7381 123.87Z" fill="#F39620"/>
<path d="M12.5085 193.002L7.35864 178.644V165.865H7.49417V178.49L12.6053 192.739L12.5085 193.002Z" fill="#F39620"/>
<path d="M25.0003 218.027H17.938L16.2881 213.429L16.3849 213.159L17.994 217.648H25.0003V218.027Z" fill="#F39620"/>
<path d="M27.825 215.066H23.0579V216.402H27.825V215.066Z" fill="#F39620"/>
</g>
</g>
<defs>
<filter id="filter0_d_7_261" x="-13.9095" y="-0.000434875" width="477.786" height="237.237" filterUnits="userSpaceOnUse" color-interpolation-filters="sRGB">
<feFlood flood-opacity="0" result="BackgroundImageFix"/>
<feColorMatrix in="SourceAlpha" type="matrix" values="0 0 0 0 0 0 0 0 0 0 0 0 0 0 0 0 0 0 127 0" result="hardAlpha"/>
<feOffset/>
<feGaussianBlur stdDeviation="9.60471"/>
<feComposite in2="hardAlpha" operator="out"/>
<feColorMatrix type="matrix" values="0 0 0 0 0.952941 0 0 0 0 0.588235 0 0 0 0 0.12549 0 0 0 0.4 0"/>
<feBlend mode="normal" in2="BackgroundImageFix" result="effect1_dropShadow_7_261"/>
<feBlend mode="normal" in="SourceGraphic" in2="effect1_dropShadow_7_261" result="shape"/>
</filter>
<clipPath id="clip0_7_261">
<rect width="450" height="238" fill="white"/>
</clipPath>
</defs>
</svg>
